<svg width="27" height="26" viewBox="0 0 27 26" fill="none" xmlns="http://www.w3.org/2000/svg">
<path d="M13.5036 22.4659C13.36 22.4667 13.2176 22.4402 13.0847 22.3877C12.9517 22.3353 12.8308 22.2581 12.7289 22.1604L4.25079 13.9651C3.18734 12.9277 2.59082 11.5271 2.59082 10.0676C2.59082 8.60802 3.18734 7.20742 4.25079 6.17002C5.32256 5.13824 6.77439 4.55884 8.28796 4.55884C9.80154 4.55884 11.2534 5.13824 12.3251 6.17002L13.5036 7.30768L14.682 6.17002C15.7537 5.13824 17.2056 4.55884 18.7191 4.55884C20.2327 4.55884 21.6845 5.13824 22.7563 6.17002C23.8198 7.20742 24.4163 8.60802 24.4163 10.0676C24.4163 11.5271 23.8198 12.9277 22.7563 13.9651L14.2783 22.1604C14.1763 22.2581 14.0554 22.3353 13.9224 22.3877C13.7895 22.4402 13.6472 22.4667 13.5036 22.4659Z" fill="#FF0040"/>
</svg>
