<svg width="27" height="27" viewBox="0 0 27 27" fill="none" xmlns="http://www.w3.org/2000/svg">
<path d="M5.22801 3.60156H22.3137C22.5969 3.60156 22.8686 3.71811 23.0688 3.92557C23.2691 4.13303 23.3816 4.4144 23.3816 4.7078V22.4075C23.3816 22.7009 23.2691 22.9823 23.0688 23.1898C22.8686 23.3972 22.5969 23.5138 22.3137 23.5138H5.22801C4.9448 23.5138 4.67319 23.3972 4.47292 23.1898C4.27266 22.9823 4.16016 22.7009 4.16016 22.4075V4.7078C4.16016 4.4144 4.27266 4.13303 4.47292 3.92557C4.67319 3.71811 4.9448 3.60156 5.22801 3.60156ZM6.29587 5.81403V21.3013H21.2459V5.81403H6.29587ZM10.5673 8.02649H14.3048C15.296 8.02649 16.2467 8.43442 16.9476 9.16052C17.6485 9.88663 18.0423 10.8714 18.0423 11.8983C18.0423 12.9252 17.6485 13.91 16.9476 14.6361C16.2467 15.3622 15.296 15.7701 14.3048 15.7701H12.703V19.0888H10.5673V8.02649ZM12.703 10.239V13.5577H14.3048C14.7296 13.5577 15.137 13.3828 15.4374 13.0716C15.7378 12.7605 15.9066 12.3384 15.9066 11.8983C15.9066 11.4582 15.7378 11.0362 15.4374 10.725C15.137 10.4138 14.7296 10.239 14.3048 10.239H12.703Z" fill="white"/>
</svg>
