<svg width="23" height="21" viewBox="0 0 23 21" fill="none" xmlns="http://www.w3.org/2000/svg">
<path d="M11.4319 9.93026C12.0346 9.93026 12.5231 9.45864 12.5231 8.87687C12.5231 8.2951 12.0346 7.82349 11.4319 7.82349C10.8293 7.82349 10.3408 8.2951 10.3408 8.87687C10.3408 9.45864 10.8293 9.93026 11.4319 9.93026Z" fill="white"/>
<path d="M15.7962 9.93026C16.3988 9.93026 16.8873 9.45864 16.8873 8.87687C16.8873 8.2951 16.3988 7.82349 15.7962 7.82349C15.1936 7.82349 14.7051 8.2951 14.7051 8.87687C14.7051 9.45864 15.1936 9.93026 15.7962 9.93026Z" fill="white"/>
<path d="M7.06769 9.93026C7.6703 9.93026 8.15882 9.45864 8.15882 8.87687C8.15882 8.2951 7.6703 7.82349 7.06769 7.82349C6.46508 7.82349 5.97656 8.2951 5.97656 8.87687C5.97656 9.45864 6.46508 9.93026 7.06769 9.93026Z" fill="white"/>
<path d="M19.0697 0.449707H3.79389C2.92573 0.449707 2.09314 0.782652 1.47926 1.3753C0.865381 1.96794 0.520508 2.77174 0.520508 3.60987V19.4107C0.520841 19.5973 0.572542 19.7806 0.67032 19.9416C0.768098 20.1026 0.90844 20.2357 1.07698 20.3271C1.24006 20.4164 1.42419 20.4635 1.61163 20.4641C1.80747 20.464 1.99969 20.4131 2.16811 20.3166L7.06727 17.4514C7.24836 17.3473 7.4568 17.2961 7.66739 17.3039H19.0697C19.9378 17.3039 20.7704 16.971 21.3843 16.3783C21.9982 15.7857 22.3431 14.9819 22.3431 14.1437V3.60987C22.3431 2.77174 21.9982 1.96794 21.3843 1.3753C20.7704 0.782652 19.9378 0.449707 19.0697 0.449707ZM20.1608 14.1437C20.1608 14.4231 20.0458 14.6911 19.8412 14.8886C19.6366 15.0862 19.3591 15.1971 19.0697 15.1971H7.66739C7.07144 15.1967 6.48667 15.3533 5.97614 15.6501L2.70276 17.5462V3.60987C2.70276 3.33049 2.81772 3.06256 3.02235 2.86501C3.22697 2.66746 3.5045 2.55648 3.79389 2.55648H19.0697C19.3591 2.55648 19.6366 2.66746 19.8412 2.86501C20.0458 3.06256 20.1608 3.33049 20.1608 3.60987V14.1437Z" fill="white"/>
</svg>
