<svg width="27" height="26" viewBox="0 0 27 26" fill="none" xmlns="http://www.w3.org/2000/svg">
<path d="M20.1228 16.1457C19.2657 16.1463 18.4429 16.4716 17.8315 17.0516L9.21157 13.3436C9.21157 13.2172 9.21157 13.1119 9.21157 12.9855C9.21157 12.8591 9.21157 12.7537 9.21157 12.6379L17.8315 8.91942C18.3714 9.43033 19.0778 9.74507 19.8308 9.81017C20.5839 9.87528 21.337 9.68674 21.9623 9.27659C22.5877 8.86643 23.0467 8.25993 23.2614 7.56012C23.4761 6.8603 23.4333 6.1103 23.1402 5.4375C22.8471 4.76471 22.3219 4.2106 21.6536 3.86928C20.9853 3.52796 20.2153 3.42048 19.4743 3.5651C18.7332 3.70971 18.0669 4.09751 17.5884 4.66261C17.11 5.22772 16.8488 5.93529 16.8495 6.66517V7.02332L8.22956 10.7312C7.76949 10.2949 7.18616 9.99945 6.55278 9.88203C5.91941 9.76461 5.26422 9.83045 4.66946 10.0713C4.0747 10.3121 3.56689 10.7171 3.20976 11.2356C2.85263 11.7541 2.66211 12.3629 2.66211 12.9855C2.66211 13.6081 2.85263 14.2169 3.20976 14.7354C3.56689 15.2538 4.0747 15.6589 4.66946 15.8997C5.26422 16.1405 5.91941 16.2064 6.55278 16.089C7.18616 15.9715 7.76949 15.6761 8.22956 15.2397L16.8495 18.9582V19.3058C16.8495 19.9308 17.0414 20.5418 17.4011 21.0615C17.7608 21.5812 18.272 21.9862 18.8702 22.2254C19.4683 22.4646 20.1265 22.5272 20.7614 22.4053C21.3964 22.2833 21.9797 21.9823 22.4375 21.5404C22.8953 21.0984 23.207 20.5353 23.3333 19.9223C23.4596 19.3093 23.3948 18.6739 23.1471 18.0965C22.8993 17.519 22.4797 17.0255 21.9414 16.6782C21.4031 16.331 20.7703 16.1457 20.1228 16.1457Z" fill="#0500FF"/>
</svg>
