<svg width="24" height="18" viewBox="0 0 24 18" fill="none" xmlns="http://www.w3.org/2000/svg">
<g clip-path="url(#clip0_567_2581)">
<path d="M12.2644 16.9628C12.1121 16.9628 11.7579 16.6785 11.2019 16.1099C10.6459 15.5413 10.3679 15.1796 10.3679 15.0249C10.3679 14.7774 10.6059 14.5685 11.0819 14.3983C11.558 14.2281 11.9521 14.143 12.2644 14.143C12.5767 14.143 12.9709 14.2281 13.4469 14.3983C13.923 14.5685 14.161 14.7774 14.161 15.0249C14.161 15.1796 13.883 15.5413 13.327 16.1099C12.771 16.6785 12.4168 16.9628 12.2644 16.9628ZM15.3492 13.8181C15.334 13.8181 15.1817 13.7214 14.8922 13.528C14.6028 13.3346 14.2162 13.1412 13.7326 12.9478C13.2489 12.7544 12.7595 12.6577 12.2644 12.6577C11.7693 12.6577 11.28 12.7544 10.7963 12.9478C10.3126 13.1412 9.92799 13.3346 9.64236 13.528C9.35673 13.7214 9.20249 13.8181 9.17964 13.8181C9.04254 13.8181 8.68645 13.528 8.11139 12.9478C7.53632 12.3676 7.24879 12.0079 7.24879 11.8687C7.24879 11.7681 7.28687 11.6791 7.36304 11.6018C7.95715 11.0061 8.70359 10.5381 9.60237 10.1977C10.5012 9.85733 11.3885 9.68714 12.2644 9.68714C13.1404 9.68714 14.0277 9.85733 14.9265 10.1977C15.8253 10.5381 16.5717 11.0061 17.1658 11.6018C17.242 11.6791 17.2801 11.7681 17.2801 11.8687C17.2801 12.0079 16.9925 12.3676 16.4175 12.9478C15.8424 13.528 15.4863 13.8181 15.3492 13.8181ZM18.4683 10.6619C18.3845 10.6619 18.2969 10.6309 18.2055 10.569C17.1696 9.75676 16.2099 9.15917 15.3264 8.77624C14.4428 8.39331 13.4222 8.20185 12.2644 8.20185C11.617 8.20185 10.9677 8.28694 10.3164 8.45713C9.66521 8.62732 9.09776 8.83232 8.61409 9.07214C8.13043 9.31195 7.69818 9.55176 7.31734 9.79158C6.9365 10.0314 6.63564 10.2364 6.41475 10.4066C6.19386 10.5768 6.0758 10.6619 6.06057 10.6619C5.93108 10.6619 5.58071 10.3718 5.00945 9.79158C4.4382 9.21138 4.15257 8.85166 4.15257 8.71242C4.15257 8.61959 4.19065 8.53449 4.26682 8.45713C5.27223 7.436 6.49092 6.64307 7.92287 6.07835C9.35483 5.51363 10.802 5.23127 12.2644 5.23127C13.7269 5.23127 15.174 5.51363 16.606 6.07835C18.038 6.64307 19.2566 7.436 20.2621 8.45713C20.3382 8.53449 20.3763 8.61959 20.3763 8.71242C20.3763 8.85166 20.0907 9.21138 19.5194 9.79158C18.9482 10.3718 18.5978 10.6619 18.4683 10.6619ZM21.5645 7.51722C21.4807 7.51722 21.397 7.48241 21.3132 7.41279C19.9498 6.19825 18.5349 5.28348 17.0687 4.66848C15.6025 4.05348 14.0011 3.74597 12.2644 3.74597C10.5278 3.74597 8.92638 4.05348 7.46015 4.66848C5.99392 5.28348 4.57911 6.19825 3.2157 7.41279C3.13192 7.48241 3.04813 7.51722 2.96435 7.51722C2.83486 7.51722 2.48259 7.22713 1.90752 6.64693C1.33246 6.06674 1.04492 5.70702 1.04492 5.56778C1.04492 5.46721 1.08301 5.37825 1.15917 5.30089C2.58351 3.86201 4.27824 2.74804 6.24337 1.95898C8.2085 1.16992 10.2155 0.775391 12.2644 0.775391C14.3133 0.775391 16.3204 1.16992 18.2855 1.95898C20.2506 2.74804 21.9454 3.86201 23.3697 5.30089C23.4459 5.37825 23.4839 5.46721 23.4839 5.56778C23.4839 5.70702 23.1964 6.06674 22.6213 6.64693C22.0463 7.22713 21.694 7.51722 21.5645 7.51722Z" fill="white"/>
</g>
<defs>
<clipPath id="clip0_567_2581">
<rect x="0.928711" y="0.775391" width="22.6714" height="16.3382" rx="8.16911" fill="white"/>
</clipPath>
</defs>
</svg>
