<svg width="311" height="53" viewBox="0 0 311 53" fill="none" xmlns="http://www.w3.org/2000/svg">
<path d="M13.904 26.008C15.56 26.008 16.916 26.236 17.972 26.692C19.028 27.148 19.976 27.7 20.816 28.348C21.08 28.564 21.32 28.672 21.536 28.672C21.992 28.672 22.292 27.952 22.436 26.512H23.264C23.216 27.448 23.18 28.6 23.156 29.968C23.132 31.336 23.12 33.136 23.12 35.368H22.292C22.124 33.784 21.848 32.44 21.464 31.336C21.08 30.208 20.348 29.248 19.268 28.456C18.716 28 18.056 27.652 17.288 27.412C16.544 27.148 15.8 27.016 15.056 27.016C13.712 27.016 12.572 27.388 11.636 28.132C10.724 28.852 9.98 29.812 9.404 31.012C8.828 32.188 8.408 33.508 8.144 34.972C7.904 36.412 7.784 37.864 7.784 39.328C7.784 43.648 8.336 46.804 9.44 48.796C10.568 50.788 12.128 51.784 14.12 51.784C14.6 51.784 15.02 51.736 15.38 51.64C15.74 51.52 16.04 51.376 16.28 51.208C16.592 50.992 16.808 50.74 16.928 50.452C17.048 50.164 17.108 49.804 17.108 49.372V45.808C17.108 44.68 17.012 43.84 16.82 43.288C16.628 42.712 16.268 42.328 15.74 42.136C15.236 41.92 14.48 41.8 13.472 41.776V41.056C14 41.08 14.636 41.104 15.38 41.128C16.124 41.128 16.904 41.14 17.72 41.164C18.536 41.164 19.292 41.164 19.988 41.164C21.068 41.164 22.052 41.152 22.94 41.128C23.852 41.104 24.596 41.08 25.172 41.056V41.776C24.74 41.8 24.404 41.884 24.164 42.028C23.948 42.172 23.804 42.46 23.732 42.892C23.66 43.324 23.624 43.984 23.624 44.872V52H22.904C22.88 51.592 22.784 51.148 22.616 50.668C22.448 50.188 22.172 49.948 21.788 49.948C21.62 49.948 21.38 49.996 21.068 50.092C20.756 50.188 20.264 50.404 19.592 50.74C18.704 51.22 17.744 51.64 16.712 52C15.704 52.336 14.672 52.504 13.616 52.504C10.712 52.504 8.276 51.988 6.308 50.956C4.364 49.924 2.9 48.448 1.916 46.528C0.932 44.584 0.44 42.244 0.44 39.508C0.44 36.796 1.016 34.432 2.168 32.416C3.32 30.4 4.904 28.828 6.92 27.7C8.96 26.572 11.288 26.008 13.904 26.008Z" fill="#2B3087"/>
<path d="M37.5602 52.324C35.7122 52.324 34.0322 51.904 32.5202 51.064C31.0322 50.224 29.8562 49.036 28.9922 47.5C28.1522 45.94 27.7322 44.14 27.7322 42.1C27.7322 40.084 28.1642 38.308 29.0282 36.772C29.9162 35.212 31.1162 34.024 32.6282 33.208C34.1402 32.368 35.8322 31.948 37.7042 31.948C39.5762 31.948 41.2682 32.368 42.7802 33.208C44.2922 34.024 45.4802 35.2 46.3442 36.736C47.2322 38.272 47.6762 40.06 47.6762 42.1C47.6762 44.14 47.2202 45.94 46.3082 47.5C45.4202 49.036 44.2082 50.224 42.6722 51.064C41.1362 51.904 39.4322 52.324 37.5602 52.324ZM37.5602 49.444C38.7362 49.444 39.8402 49.168 40.8722 48.616C41.9042 48.064 42.7322 47.236 43.3562 46.132C44.0042 45.028 44.3282 43.684 44.3282 42.1C44.3282 40.516 44.0162 39.172 43.3922 38.068C42.7682 36.964 41.9522 36.148 40.9442 35.62C39.9362 35.068 38.8442 34.792 37.6682 34.792C36.4682 34.792 35.3642 35.068 34.3562 35.62C33.3722 36.148 32.5802 36.964 31.9802 38.068C31.3802 39.172 31.0802 40.516 31.0802 42.1C31.0802 43.708 31.3682 45.064 31.9442 46.168C32.5442 47.272 33.3362 48.1 34.3202 48.652C35.3042 49.18 36.3842 49.444 37.5602 49.444ZM55.6196 25.36V52H52.3436V25.36H55.6196ZM60.3389 42.064C60.3389 40.048 60.7469 38.284 61.5629 36.772C62.3789 35.236 63.4949 34.048 64.9109 33.208C66.3509 32.368 67.9589 31.948 69.7349 31.948C71.2709 31.948 72.6989 32.308 74.0189 33.028C75.3389 33.724 76.3469 34.648 77.0429 35.8V25.36H80.3549V52H77.0429V48.292C76.3949 49.468 75.4349 50.44 74.1629 51.208C72.8909 51.952 71.4029 52.324 69.6989 52.324C67.9469 52.324 66.3509 51.892 64.9109 51.028C63.4949 50.164 62.3789 48.952 61.5629 47.392C60.7469 45.832 60.3389 44.056 60.3389 42.064ZM77.0429 42.1C77.0429 40.612 76.7429 39.316 76.1429 38.212C75.5429 37.108 74.7269 36.268 73.6949 35.692C72.6869 35.092 71.5709 34.792 70.3469 34.792C69.1229 34.792 68.0069 35.08 66.9989 35.656C65.9909 36.232 65.1869 37.072 64.5869 38.176C63.9869 39.28 63.6869 40.576 63.6869 42.064C63.6869 43.576 63.9869 44.896 64.5869 46.024C65.1869 47.128 65.9909 47.98 66.9989 48.58C68.0069 49.156 69.1229 49.444 70.3469 49.444C71.5709 49.444 72.6869 49.156 73.6949 48.58C74.7269 47.98 75.5429 47.128 76.1429 46.024C76.7429 44.896 77.0429 43.588 77.0429 42.1ZM104.251 41.38C104.251 42.004 104.215 42.664 104.143 43.36H88.3751C88.4951 45.304 89.1551 46.828 90.3551 47.932C91.5791 49.012 93.0551 49.552 94.7831 49.552C96.1991 49.552 97.3751 49.228 98.3111 48.58C99.2711 47.908 99.9431 47.02 100.327 45.916H103.855C103.327 47.812 102.271 49.36 100.687 50.56C99.1031 51.736 97.1351 52.324 94.7831 52.324C92.9111 52.324 91.2311 51.904 89.7431 51.064C88.2791 50.224 87.1271 49.036 86.2871 47.5C85.4471 45.94 85.0271 44.14 85.0271 42.1C85.0271 40.06 85.4351 38.272 86.2511 36.736C87.0671 35.2 88.2071 34.024 89.6711 33.208C91.1591 32.368 92.8631 31.948 94.7831 31.948C96.6551 31.948 98.3111 32.356 99.7511 33.172C101.191 33.988 102.295 35.116 103.063 36.556C103.855 37.972 104.251 39.58 104.251 41.38ZM100.867 40.696C100.867 39.448 100.591 38.38 100.039 37.492C99.4871 36.58 98.7311 35.896 97.7711 35.44C96.8351 34.96 95.7911 34.72 94.6391 34.72C92.9831 34.72 91.5671 35.248 90.3911 36.304C89.2391 37.36 88.5791 38.824 88.4111 40.696H100.867ZM118.547 31.912C120.947 31.912 122.891 32.644 124.379 34.108C125.867 35.548 126.611 37.636 126.611 40.372V52H123.371V40.84C123.371 38.872 122.879 37.372 121.895 36.34C120.911 35.284 119.567 34.756 117.863 34.756C116.135 34.756 114.755 35.296 113.723 36.376C112.715 37.456 112.211 39.028 112.211 41.092V52H108.935V32.272H112.211V35.08C112.859 34.072 113.735 33.292 114.839 32.74C115.967 32.188 117.203 31.912 118.547 31.912ZM206.71 25.408V52H199.942V48.64C199.078 49.792 197.942 50.704 196.534 51.376C195.158 52.016 193.654 52.336 192.022 52.336C189.942 52.336 188.102 51.904 186.502 51.04C184.902 50.144 183.638 48.848 182.71 47.152C181.814 45.424 181.366 43.376 181.366 41.008V25.408H188.086V40.048C188.086 42.16 188.614 43.792 189.67 44.944C190.726 46.064 192.166 46.624 193.99 46.624C195.846 46.624 197.302 46.064 198.358 44.944C199.414 43.792 199.942 42.16 199.942 40.048V25.408H206.71ZM220.54 29.536C221.404 28.128 222.524 27.024 223.9 26.224C225.308 25.424 226.908 25.024 228.7 25.024V32.08H226.924C224.812 32.08 223.212 32.576 222.124 33.568C221.068 34.56 220.54 36.288 220.54 38.752V52H213.82V25.408H220.54V29.536ZM245.515 52.432C242.955 52.432 240.651 51.872 238.603 50.752C236.555 49.6 234.939 47.984 233.755 45.904C232.603 43.824 232.027 41.424 232.027 38.704C232.027 35.984 232.619 33.584 233.803 31.504C235.019 29.424 236.667 27.824 238.747 26.704C240.827 25.552 243.147 24.976 245.707 24.976C248.267 24.976 250.587 25.552 252.667 26.704C254.747 27.824 256.379 29.424 257.563 31.504C258.779 33.584 259.387 35.984 259.387 38.704C259.387 41.424 258.763 43.824 257.515 45.904C256.299 47.984 254.635 49.6 252.523 50.752C250.443 51.872 248.107 52.432 245.515 52.432ZM245.515 46.576C246.731 46.576 247.867 46.288 248.923 45.712C250.011 45.104 250.875 44.208 251.515 43.024C252.155 41.84 252.475 40.4 252.475 38.704C252.475 36.176 251.803 34.24 250.459 32.896C249.147 31.52 247.531 30.832 245.611 30.832C243.691 30.832 242.075 31.52 240.763 32.896C239.483 34.24 238.843 36.176 238.843 38.704C238.843 41.232 239.467 43.184 240.715 44.56C241.995 45.904 243.595 46.576 245.515 46.576ZM271.516 29.536C272.38 28.128 273.5 27.024 274.876 26.224C276.284 25.424 277.884 25.024 279.676 25.024V32.08H277.9C275.788 32.08 274.188 32.576 273.1 33.568C272.044 34.56 271.516 36.288 271.516 38.752V52H264.796V25.408H271.516V29.536Z" fill="black"/>
<path d="M156.047 0.879997L173.543 45.952C174.215 47.68 174.959 48.88 175.775 49.552C176.639 50.176 177.407 50.512 178.079 50.56V52C176.639 51.904 174.935 51.856 172.967 51.856C171.047 51.808 169.103 51.784 167.135 51.784C164.927 51.784 162.839 51.808 160.871 51.856C158.903 51.856 157.343 51.904 156.191 52V50.56C158.639 50.464 160.175 50.056 160.799 49.336C161.471 48.568 161.327 46.96 160.367 44.512L148.127 11.032L149.423 9.16L138.479 37.672C137.423 40.312 136.775 42.472 136.535 44.152C136.343 45.832 136.463 47.128 136.895 48.04C137.375 48.952 138.119 49.6 139.127 49.984C140.183 50.32 141.431 50.512 142.871 50.56V52C141.287 51.904 139.775 51.856 138.335 51.856C136.895 51.808 135.431 51.784 133.943 51.784C132.887 51.784 131.879 51.808 130.919 51.856C130.007 51.856 129.191 51.904 128.471 52V50.56C129.479 50.368 130.511 49.72 131.567 48.616C132.623 47.512 133.655 45.64 134.663 43L151.079 0.879997C151.847 0.927997 152.663 0.951996 153.527 0.951996C154.439 0.951996 155.279 0.927997 156.047 0.879997ZM161.087 31.264V32.704H139.631L140.351 31.264H161.087Z" fill="#FA7800"/>
<path d="M282.954 38.608C282.954 35.92 283.482 33.536 284.538 31.456C285.626 29.376 287.082 27.776 288.906 26.656C290.762 25.536 292.826 24.976 295.098 24.976C297.082 24.976 298.81 25.376 300.282 26.176C301.786 26.976 302.986 27.984 303.882 29.2V25.408H310.65V52H303.882V48.112C303.018 49.36 301.818 50.4 300.282 51.232C298.778 52.032 297.034 52.432 295.05 52.432C292.81 52.432 290.762 51.856 288.906 50.704C287.082 49.552 285.626 47.936 284.538 45.856C283.482 43.744 282.954 41.328 282.954 38.608ZM303.882 38.704C303.882 37.072 303.562 35.68 302.922 34.528C302.282 33.344 301.418 32.448 300.33 31.84C299.242 31.2 298.074 30.88 296.826 30.88C295.578 30.88 294.426 31.184 293.37 31.792C292.314 32.4 291.45 33.296 290.778 34.48C290.138 35.632 289.818 37.008 289.818 38.608C289.818 40.208 290.138 41.616 290.778 42.832C291.45 44.016 292.314 44.928 293.37 45.568C294.458 46.208 295.61 46.528 296.826 46.528C298.074 46.528 299.242 46.224 300.33 45.616C301.418 44.976 302.282 44.08 302.922 42.928C303.562 41.744 303.882 40.336 303.882 38.704Z" fill="#FF0000"/>
</svg>
