<svg width="38" height="39" viewBox="0 0 38 39" fill="none" xmlns="http://www.w3.org/2000/svg">
<path d="M8.10831 28.9311C11.3251 27.065 15.0413 26 19 26C22.9587 26 26.675 27.065 29.8917 28.9311M23.75 16.25C23.75 18.9424 21.6234 21.125 19 21.125C16.3766 21.125 14.25 18.9424 14.25 16.25C14.25 13.5576 16.3766 11.375 19 11.375C21.6234 11.375 23.75 13.5576 23.75 16.25ZM33.25 19.5C33.25 27.5772 26.8701 34.125 19 34.125C11.1299 34.125 4.75 27.5772 4.75 19.5C4.75 11.4228 11.1299 4.875 19 4.875C26.8701 4.875 33.25 11.4228 33.25 19.5Z" stroke="#2B3087" stroke-width="2" stroke-linecap="round" stroke-linejoin="round"/>
</svg>
